<mxfile host="app.diagrams.net" agent="Mozilla/5.0 (Windows NT 10.0; Win64; x64) AppleWebKit/537.36 (KHTML, like Gecko) Chrome/124.0.0.0 Safari/537.36" version="24.8.6">
  <diagram name="第 1 页" id="8NKi3SfBUs7mlNDmreAB">
    <mxGraphModel dx="1735" dy="1029" grid="1" gridSize="10" guides="1" tooltips="1" connect="1" arrows="1" fold="1" page="1" pageScale="1" pageWidth="827" pageHeight="1169" math="0" shadow="0">
      <root>
        <mxCell id="0" />
        <mxCell id="1" parent="0" />
        <mxCell id="IHcVftLQc6fiappHIX8x-2" value="" style="rounded=1;whiteSpace=wrap;html=1;" vertex="1" parent="1">
          <mxGeometry x="45" y="30" width="760" height="240" as="geometry" />
        </mxCell>
        <mxCell id="IHcVftLQc6fiappHIX8x-7" value="&lt;font style=&quot;font-size: 18px;&quot;&gt;盖特纳创业过程模型&lt;/font&gt;" style="rounded=0;whiteSpace=wrap;html=1;dashed=1;" vertex="1" parent="1">
          <mxGeometry x="80" y="60" width="180" height="60" as="geometry" />
        </mxCell>
        <mxCell id="IHcVftLQc6fiappHIX8x-8" value="&lt;span style=&quot;font-size: 18px;&quot;&gt;创业资源理论&lt;/span&gt;" style="rounded=0;whiteSpace=wrap;html=1;dashed=1;" vertex="1" parent="1">
          <mxGeometry x="330" y="60" width="180" height="60" as="geometry" />
        </mxCell>
        <mxCell id="IHcVftLQc6fiappHIX8x-9" value="&lt;font style=&quot;font-size: 18px;&quot;&gt;奥拓U型理论&lt;/font&gt;" style="rounded=0;whiteSpace=wrap;html=1;dashed=1;" vertex="1" parent="1">
          <mxGeometry x="580" y="60" width="180" height="60" as="geometry" />
        </mxCell>
        <mxCell id="IHcVftLQc6fiappHIX8x-12" value="&lt;font style=&quot;font-size: 36px;&quot;&gt;文献回顾与理论基础&lt;/font&gt;" style="text;html=1;align=center;verticalAlign=middle;whiteSpace=wrap;rounded=0;" vertex="1" parent="1">
          <mxGeometry x="216" y="170" width="386" height="70" as="geometry" />
        </mxCell>
        <mxCell id="IHcVftLQc6fiappHIX8x-13" value="" style="rounded=1;whiteSpace=wrap;html=1;" vertex="1" parent="1">
          <mxGeometry x="34" y="330" width="760" height="240" as="geometry" />
        </mxCell>
        <mxCell id="IHcVftLQc6fiappHIX8x-14" value="&lt;font style=&quot;font-size: 18px;&quot;&gt;研究假设&lt;/font&gt;" style="rounded=0;whiteSpace=wrap;html=1;dashed=1;" vertex="1" parent="1">
          <mxGeometry x="69" y="360" width="180" height="60" as="geometry" />
        </mxCell>
        <mxCell id="IHcVftLQc6fiappHIX8x-15" value="&lt;span style=&quot;font-size: 18px;&quot;&gt;研究方法&lt;/span&gt;" style="rounded=0;whiteSpace=wrap;html=1;dashed=1;" vertex="1" parent="1">
          <mxGeometry x="319" y="360" width="180" height="60" as="geometry" />
        </mxCell>
        <mxCell id="IHcVftLQc6fiappHIX8x-16" value="&lt;span style=&quot;font-size: 18px;&quot;&gt;研究步骤&lt;/span&gt;" style="rounded=0;whiteSpace=wrap;html=1;dashed=1;" vertex="1" parent="1">
          <mxGeometry x="569" y="360" width="180" height="60" as="geometry" />
        </mxCell>
        <mxCell id="IHcVftLQc6fiappHIX8x-17" value="&lt;span style=&quot;font-size: 36px;&quot;&gt;研究设计&lt;/span&gt;" style="text;html=1;align=center;verticalAlign=middle;whiteSpace=wrap;rounded=0;" vertex="1" parent="1">
          <mxGeometry x="221" y="470" width="386" height="70" as="geometry" />
        </mxCell>
        <mxCell id="IHcVftLQc6fiappHIX8x-18" value="" style="rounded=1;whiteSpace=wrap;html=1;" vertex="1" parent="1">
          <mxGeometry x="34" y="629" width="760" height="240" as="geometry" />
        </mxCell>
        <mxCell id="IHcVftLQc6fiappHIX8x-19" value="&lt;span style=&quot;font-size: 18px;&quot;&gt;问卷设计与预调研&lt;/span&gt;" style="rounded=0;whiteSpace=wrap;html=1;dashed=1;" vertex="1" parent="1">
          <mxGeometry x="69" y="659" width="180" height="60" as="geometry" />
        </mxCell>
        <mxCell id="IHcVftLQc6fiappHIX8x-20" value="&lt;span style=&quot;font-size: 18px;&quot;&gt;正式调研与数据分析&lt;/span&gt;" style="rounded=0;whiteSpace=wrap;html=1;dashed=1;" vertex="1" parent="1">
          <mxGeometry x="319" y="659" width="180" height="60" as="geometry" />
        </mxCell>
        <mxCell id="IHcVftLQc6fiappHIX8x-21" value="&lt;span style=&quot;font-size: 18px;&quot;&gt;相关性和差异性分析&lt;/span&gt;" style="rounded=0;whiteSpace=wrap;html=1;dashed=1;" vertex="1" parent="1">
          <mxGeometry x="569" y="659" width="180" height="60" as="geometry" />
        </mxCell>
        <mxCell id="IHcVftLQc6fiappHIX8x-22" value="&lt;span style=&quot;font-size: 36px;&quot;&gt;实证研究&lt;/span&gt;" style="text;html=1;align=center;verticalAlign=middle;whiteSpace=wrap;rounded=0;" vertex="1" parent="1">
          <mxGeometry x="216" y="809" width="386" height="70" as="geometry" />
        </mxCell>
        <mxCell id="IHcVftLQc6fiappHIX8x-23" value="&lt;span style=&quot;font-size: 18px;&quot;&gt;模型分析与假设检验&lt;/span&gt;" style="rounded=0;whiteSpace=wrap;html=1;dashed=1;" vertex="1" parent="1">
          <mxGeometry x="170" y="749" width="180" height="60" as="geometry" />
        </mxCell>
        <mxCell id="IHcVftLQc6fiappHIX8x-24" value="&lt;span style=&quot;font-size: 18px;&quot;&gt;内生性检验&lt;/span&gt;" style="rounded=0;whiteSpace=wrap;html=1;dashed=1;" vertex="1" parent="1">
          <mxGeometry x="460" y="749" width="180" height="60" as="geometry" />
        </mxCell>
        <mxCell id="IHcVftLQc6fiappHIX8x-25" value="" style="rounded=1;whiteSpace=wrap;html=1;" vertex="1" parent="1">
          <mxGeometry x="34" y="929" width="760" height="240" as="geometry" />
        </mxCell>
        <mxCell id="IHcVftLQc6fiappHIX8x-26" value="&lt;span style=&quot;font-size: 18px;&quot;&gt;案例选择标准&lt;/span&gt;" style="rounded=0;whiteSpace=wrap;html=1;dashed=1;" vertex="1" parent="1">
          <mxGeometry x="69" y="959" width="180" height="60" as="geometry" />
        </mxCell>
        <mxCell id="IHcVftLQc6fiappHIX8x-27" value="&lt;span style=&quot;font-size: 18px;&quot;&gt;具体案例分析&lt;/span&gt;" style="rounded=0;whiteSpace=wrap;html=1;dashed=1;" vertex="1" parent="1">
          <mxGeometry x="319" y="959" width="180" height="60" as="geometry" />
        </mxCell>
        <mxCell id="IHcVftLQc6fiappHIX8x-28" value="&lt;span style=&quot;font-size: 18px;&quot;&gt;分析结果与启示&lt;/span&gt;" style="rounded=0;whiteSpace=wrap;html=1;dashed=1;" vertex="1" parent="1">
          <mxGeometry x="569" y="959" width="180" height="60" as="geometry" />
        </mxCell>
        <mxCell id="IHcVftLQc6fiappHIX8x-29" value="&lt;span style=&quot;font-size: 36px;&quot;&gt;案例分析&lt;/span&gt;" style="text;html=1;align=center;verticalAlign=middle;whiteSpace=wrap;rounded=0;" vertex="1" parent="1">
          <mxGeometry x="221" y="1069" width="386" height="70" as="geometry" />
        </mxCell>
        <mxCell id="IHcVftLQc6fiappHIX8x-30" value="" style="rounded=1;whiteSpace=wrap;html=1;" vertex="1" parent="1">
          <mxGeometry x="34" y="1230" width="760" height="240" as="geometry" />
        </mxCell>
        <mxCell id="IHcVftLQc6fiappHIX8x-31" value="&lt;span style=&quot;font-size: 18px;&quot;&gt;研究结论&lt;/span&gt;" style="rounded=0;whiteSpace=wrap;html=1;dashed=1;" vertex="1" parent="1">
          <mxGeometry x="69" y="1260" width="180" height="60" as="geometry" />
        </mxCell>
        <mxCell id="IHcVftLQc6fiappHIX8x-32" value="&lt;span style=&quot;font-size: 18px;&quot;&gt;研究建议&lt;/span&gt;" style="rounded=0;whiteSpace=wrap;html=1;dashed=1;" vertex="1" parent="1">
          <mxGeometry x="319" y="1260" width="180" height="60" as="geometry" />
        </mxCell>
        <mxCell id="IHcVftLQc6fiappHIX8x-33" value="&lt;span style=&quot;font-size: 18px;&quot;&gt;展望&lt;/span&gt;" style="rounded=0;whiteSpace=wrap;html=1;dashed=1;" vertex="1" parent="1">
          <mxGeometry x="569" y="1260" width="180" height="60" as="geometry" />
        </mxCell>
        <mxCell id="IHcVftLQc6fiappHIX8x-34" value="&lt;span style=&quot;font-size: 36px;&quot;&gt;研究结论与建议&lt;/span&gt;" style="text;html=1;align=center;verticalAlign=middle;whiteSpace=wrap;rounded=0;" vertex="1" parent="1">
          <mxGeometry x="221" y="1380" width="386" height="70" as="geometry" />
        </mxCell>
        <mxCell id="IHcVftLQc6fiappHIX8x-42" value="" style="shape=flexArrow;endArrow=classic;html=1;rounded=0;" edge="1" parent="1">
          <mxGeometry width="50" height="50" relative="1" as="geometry">
            <mxPoint x="413" y="869" as="sourcePoint" />
            <mxPoint x="413" y="929" as="targetPoint" />
          </mxGeometry>
        </mxCell>
        <mxCell id="IHcVftLQc6fiappHIX8x-44" value="" style="shape=flexArrow;endArrow=classic;html=1;rounded=0;" edge="1" parent="1">
          <mxGeometry width="50" height="50" relative="1" as="geometry">
            <mxPoint x="412" y="1170" as="sourcePoint" />
            <mxPoint x="412" y="1230" as="targetPoint" />
          </mxGeometry>
        </mxCell>
        <mxCell id="IHcVftLQc6fiappHIX8x-45" value="" style="shape=flexArrow;endArrow=classic;html=1;rounded=0;" edge="1" parent="1">
          <mxGeometry width="50" height="50" relative="1" as="geometry">
            <mxPoint x="413" y="570" as="sourcePoint" />
            <mxPoint x="413" y="630" as="targetPoint" />
          </mxGeometry>
        </mxCell>
        <mxCell id="IHcVftLQc6fiappHIX8x-46" value="" style="shape=flexArrow;endArrow=classic;html=1;rounded=0;" edge="1" parent="1">
          <mxGeometry width="50" height="50" relative="1" as="geometry">
            <mxPoint x="412" y="270" as="sourcePoint" />
            <mxPoint x="412" y="330" as="targetPoint" />
          </mxGeometry>
        </mxCell>
      </root>
    </mxGraphModel>
  </diagram>
</mxfile>
